<?xml version="1.0" standalone="no"?>
<!DOCTYPE svg PUBLIC "-//W3C//DTD SVG 20010904//EN"
 "http://www.w3.org/TR/2001/REC-SVG-20010904/DTD/svg10.dtd">
<svg version="1.0" xmlns="http://www.w3.org/2000/svg"
 width="512.000000pt" height="512.000000pt" viewBox="0 0 512.000000 512.000000"
 preserveAspectRatio="xMidYMid meet">
<metadata>
Created by potrace 1.14, written by Peter Selinger 2001-2017
</metadata>
<g transform="translate(0.000000,512.000000) scale(0.100000,-0.100000)"
fill="#000000" stroke="none">
<path d="M2477 3664 c-1 -1 -25 -5 -54 -8 -325 -36 -634 -237 -811 -527 -157
-258 -199 -598 -110 -887 11 -37 36 -102 56 -146 l36 -78 50 6 c28 3 62 8 76
11 14 3 45 8 70 11 25 3 54 8 65 10 11 2 49 9 84 15 36 5 67 12 70 13 3 2 31
7 61 11 30 4 58 9 61 11 3 2 21 6 40 9 66 11 165 36 249 61 47 15 85 25 85 23
0 -12 94 67 113 95 69 102 7 246 -168 388 -65 52 -69 54 -360 198 -224 111
-300 171 -300 239 0 56 98 117 245 152 82 19 94 21 215 36 128 15 650 8 810
-12 140 -17 164 -25 74 -25 -176 0 -590 -10 -636 -14 -144 -14 -167 -17 -186
-21 -11 -2 -37 -6 -58 -9 -64 -10 -164 -47 -190 -70 -23 -20 -24 -22 -9 -44
31 -43 178 -105 405 -169 411 -115 625 -216 770 -362 138 -139 179 -230 173
-385 -2 -63 -9 -92 -33 -144 -69 -148 -210 -277 -410 -377 -41 -21 -84 -42
-95 -48 -45 -23 -221 -77 -351 -107 -76 -18 -143 -36 -148 -40 -12 -12 92 -23
204 -23 88 0 123 3 205 18 94 18 246 72 298 108 15 10 27 16 27 13 0 -10 133
85 197 141 220 193 359 493 367 792 3 94 -15 255 -32 301 -5 14 -10 30 -11 35
-3 28 -38 118 -69 180 -160 322 -463 549 -810 606 -58 9 -258 19 -265 13z"/>
</g>
</svg>
